HIERARCHY
ROOT Hips
{
	OFFSET	0	0	0
	CHANNELS 6  Xposition Yposition Zposition Xrotation Yrotation Zrotation
	JOINT Spine
	{
		OFFSET	0	3.19623	0.642429
		CHANNELS 3  Xrotation Yrotation Zrotation
		JOINT Spine1
		{
			OFFSET	0	5.47858	-0.978319
			CHANNELS 3  Xrotation Yrotation Zrotation
			JOINT Spine2
			{
				OFFSET	0	4.15296	0.445135
				CHANNELS 3  Xrotation Yrotation Zrotation
				JOINT Spine3
				{
					OFFSET	0	4.96986	1.47726
					CHANNELS 3  Xrotation Yrotation Zrotation
					JOINT Spine4
					{
						OFFSET	0	7.35696	-0.753305
						CHANNELS 3  Xrotation Yrotation Zrotation
						JOINT Neck
						{
							OFFSET	0	3.51216	-2.46047
							CHANNELS 3  Xrotation Yrotation Zrotation
							JOINT Head
							{
								OFFSET	0	4.21655	-1.26203
								CHANNELS 3  Xrotation Yrotation Zrotation
								End Site
								{
									OFFSET	0	8.79508	-0.425569
								}
							}
						}
					}
					JOINT LeftShoulder
					{
						OFFSET	-2.11317	8.94183	-4.21655
						CHANNELS 3  Xrotation Yrotation Zrotation
						JOINT LeftArm
						{
							OFFSET	-4.62126	-1.26203	1.61913
							CHANNELS 3  Xrotation Yrotation Zrotation
							JOINT LeftForeArm
							{
								OFFSET	-15.9392	-0.727493	1.13773
								CHANNELS 3  Xrotation Yrotation Zrotation
								JOINT LeftHand
								{
									OFFSET	-12.8901	-0.890778	0.920079
									CHANNELS 3  Xrotation Yrotation Zrotation
									End Site
									{
										OFFSET	-4.70424	-0.325089	0.335762
									}
								}
							}
						}
					}
					JOINT RightShoulder
					{
						OFFSET	2.11317	8.94183	-4.21655
						CHANNELS 3  Xrotation Yrotation Zrotation
						JOINT RightArm
						{
							OFFSET	4.62126	-1.26203	1.61913
							CHANNELS 3  Xrotation Yrotation Zrotation
							JOINT RightForeArm
							{
								OFFSET	15.9392	-0.727493	1.13773
								CHANNELS 3  Xrotation Yrotation Zrotation
								JOINT RightHand
								{
									OFFSET	12.8901	-0.890778	0.920079
									CHANNELS 3  Xrotation Yrotation Zrotation
									End Site
									{
										OFFSET	4.70424	-0.325089	0.335762
									}
								}
							}
						}
					}
				}
			}
		}
	}
	JOINT LeftUpLeg
	{
		OFFSET	-4.36218	-1.59811	-0.321215
		CHANNELS 3  Xrotation Yrotation Zrotation
		JOINT LeftLeg
		{
			OFFSET	-1.01617	-19.9114	-0.311258
			CHANNELS 3  Xrotation Yrotation Zrotation
			JOINT LeftFoot
			{
				OFFSET	-0.990294	-18.2543	1.56987
				CHANNELS 3  Xrotation Yrotation Zrotation
				JOINT LeftToeBase
				{
					OFFSET	0	-2.30168	-6.11325
					CHANNELS 3  Xrotation Yrotation Zrotation
					End Site
					{
						OFFSET	0	-0.92067	-3.68268
					}
				}
			}
		}
	}
	JOINT RightUpLeg
	{
		OFFSET	4.36218	-1.59811	-0.321215
		CHANNELS 3  Xrotation Yrotation Zrotation
		JOINT RightLeg
		{
			OFFSET	1.01617	-19.9114	-0.311258
			CHANNELS 3  Xrotation Yrotation Zrotation
			JOINT RightFoot
			{
				OFFSET	0.990294	-18.2543	1.56987
				CHANNELS 3  Xrotation Yrotation Zrotation
				JOINT RightToeBase
				{
					OFFSET	0	-2.30168	-6.11325
					CHANNELS 3  Xrotation Yrotation Zrotation
					End Site
					{
						OFFSET	0	-0.92067	-3.68268
					}
				}
			}
		}
	}
}
MOTION
Frames: 11
Frame Time: 0.033334
 -34.683 47.272 36.2493 173.684 144.355 178.543 180 179.988 -177.691 3.09206 0.0234667 3.84843 2.84383 0.0704001 3.84843 1.32672 0.0117503 2.30906 2.7465 0.0368834 0.768801 4.39861 -5.14469 -8.92148 1.47008 2.20141 -2.61391 170.968 -160.209 160.182 46.2589 -0.360871 14.5425 116.962 -64.2291 119.554 -0 -12.035 44.8979 171.598 178.648 -163.258 74.4407 -32.591 12.5247 102.78 -16.7402 -51.2779 -0 -10.2989 4.08509 17.9468 3.63362 6.16504 160.638 -179.967 172.821 155.496 179.726 -170.306 0.407953 0 0 18.0378 0.224061 15.3909 136.305 167.69 177.117 156.107 -179.941 166.814 167.067 180 -180
 -33.9777 47.1007 36.2526 175.323 144.209 177.629 0.000840649 -0.0211082 2.28064 2.95671 -0.0421569 3.80107 2.73702 -0.126471 3.80108 1.29424 -0.0211082 2.28064 2.56144 0.0339765 0.759454 4.07299 -5.43371 -8.27888 1.35063 0.8513 -2.49127 171.437 -160.126 161.247 46.8779 -0.312186 15.5924 116.681 -64.5236 119.266 -0 -11.3753 45.4184 171.344 178.305 -162.68 74.5132 -32.7461 12.3753 103.113 -16.5249 -50.9205 -0 -10.524 3.5577 19.1685 3.36483 6.44516 159.255 179.808 170.313 155.656 -179.996 -170.592 0.41067 0 0 15.3506 0.0836453 16.0152 133.806 167.586 177.937 156.449 -179.958 167.115 167.032 180 -180
 -32.8473 46.7379 36.662 175.524 145.578 177.35 0.000605114 -0.0151269 2.29075 2.84908 -0.0302109 3.81791 2.74159 -0.0906327 3.81791 1.56407 -0.0151269 2.29075 1.72956 0.0230477 0.763234 1.9059 -5.44754 -7.47429 0.668684 -0.807307 -2.29862 171.739 -160.268 161.933 48.8051 0.114605 15.7854 114.458 -65.5714 116.643 -0 -10.5457 45.5014 171.249 177.962 -162.433 74.5402 -32.8217 12.1458 103.078 -16.7226 -51.208 -0 -10.8306 2.59814 20.8477 2.56644 5.15766 159.235 -179.93 169.906 156.765 -179.868 -170.773 0.405588 0 0 13.9493 -0.356485 17.0501 134.463 167.825 178.969 156.387 -179.986 167.535 166.996 180 -180
 -31.8685 46.1969 36.8133 175.613 147.218 176.676 180 179.998 -177.653 2.8653 0.00425361 3.9119 2.79208 0.0127608 3.9119 1.69241 0.00212998 2.34714 1.46348 0.019983 0.782126 1.17827 -5.96558 -7.05982 0.435811 -2.36721 -2.27177 172.067 -159.852 162.66 50.3538 0.158963 16.5667 113.157 -66.1738 115.187 -0 -9.80838 45.6694 170.946 177.629 -161.746 74.518 -32.4536 11.7989 103.195 -16.6837 -50.8652 -0 -11.0989 1.94205 21.3881 1.93228 3.87121 159.376 -179.688 170.369 158.881 -179.882 -170.771 0.394417 0 0 13.0751 -1.29715 17.9058 136.512 167.931 179.346 156.652 179.982 167.809 166.959 180 -180
 -31.3741 45.8605 36.9359 175.502 149.556 176.25 180 179.997 -177.663 2.93714 0.00580595 3.89531 2.86169 0.0174178 3.89531 1.73424 0.00290727 2.33719 1.5017 0.0204179 0.778794 1.29063 -6.50205 -6.30897 0.448794 -4.06764 -2.17407 172.269 -160.094 163.122 51.5713 -0.09405 17.1831 116.489 -65.3745 118.807 -0 -9.27613 45.7989 170.587 177.258 -160.928 74.537 -31.9881 11.5191 103.549 -16.6146 -49.9541 -0 -11.7849 1.01615 21.6745 1.40147 2.44963 160.296 -179.246 170.435 161.39 179.971 -170.802 0.388107 0 0 10.6897 -2.35634 19.0553 139.336 168.294 -179.093 156.821 179.976 168.218 166.913 180 -180
 -30.1692 45.7045 36.7182 176.395 151.32 175.796 0.000414599 -0.0101084 2.34869 2.97427 -0.0201865 3.91449 2.8865 -0.0605595 3.91449 1.71072 -0.0101084 2.34869 1.62459 0.0221971 0.782583 1.65886 -7.39353 -5.91783 0.545706 -5.89385 -2.19357 172.692 -161.247 164.111 50.8847 1.33769 17.967 118.664 -64.6292 121.107 -0 -8.82073 46.7148 170.415 176.99 -160.518 74.8533 -31.7707 11.5502 104.075 -16.3518 -48.567 -0 -12.3091 0.373698 21.0266 0.512467 1.28921 160.067 -178.819 169.232 162.573 179.93 -170.849 0.394328 0 0 9.14338 -4.33808 19.4156 141.459 169.445 -178.479 159.037 179.989 168.579 166.875 180 -180
 -29.2569 45.98 36.4026 177.647 152.9 175.13 0.00205872 -0.0511416 2.30521 2.96712 -0.102136 3.84202 2.88619 -0.306408 3.84207 1.6916 -0.0511416 2.30521 1.64921 0.0221161 0.768085 1.80334 -8.21752 -5.5004 0.572663 -7.70321 -2.20086 172.901 -162.326 164.618 48.2414 2.45021 19.3268 121.486 -63.5201 124.529 -0 -8.45011 47.8518 170.281 176.892 -160.215 75.2744 -31.7237 11.8539 104.562 -16.0731 -46.9498 -0 -12.6662 -0.143973 18.9959 -0.334517 0.363678 160.862 -178.504 168.95 162.005 179.73 -170.967 0.415456 0 0 9.9978 -6.09849 18.362 141.807 171.093 -179.517 162.229 179.416 168.867 166.831 180 -180
 -27.6887 46.1242 36.2262 177.564 154.547 176.41 0.0026426 -0.0691998 2.18695 2.9109 -0.13822 3.64493 2.83791 -0.414661 3.64501 1.66557 -0.0691998 2.18695 1.60145 0.020374 0.728699 1.80828 -8.64051 -4.70405 0.550464 -9.30211 -2.08063 172.873 -163.018 164.587 47.3514 3.30894 19.9145 121.402 -63.5914 124.498 -0 -7.97653 48.4424 170.264 176.272 -160.086 74.8313 -31.9073 11.3675 104.88 -15.9049 -45.5492 -0 -13.2447 -0.686588 17.7826 -1.7802 -2.50736 163.055 -178.225 168.369 160.621 179.621 -171.236 0.45089 0 0 11.3291 -8.03559 16.5366 142.127 172.913 179.494 162.982 178.956 169.29 166.798 180 -180
 -25.8814 46.1719 36.5026 177.368 156.783 177.359 0.00317639 -0.0892204 2.03896 2.92374 -0.17824 3.39828 2.84539 -0.53472 3.39841 1.64674 -0.0892204 2.03896 1.66753 0.0197787 0.679365 2.06231 -8.92686 -3.92479 0.607022 -10.5804 -1.94056 172.895 -162.855 164.628 47.3381 3.55741 20.4904 120.585 -63.5837 123.83 -0 -7.69445 48.5222 170.019 176.148 -159.534 74.5293 -31.3368 11.4699 105.316 -15.717 -44.6416 -0 -13.6711 -1.11768 15.9987 -3.1819 -5.07615 166.457 -177.947 167.682 158.586 179.514 -171.445 0.485101 0 0 13.5888 -9.22635 14.2389 141.562 175.338 179.32 165.35 178.465 169.763 166.797 180 -180
 -24.2521 46.1313 36.2804 177.346 158.433 177.767 0.00337978 -0.0938772 2.06188 2.91799 -0.187538 3.43649 2.81936 -0.562614 3.43663 1.57774 -0.0938772 2.06188 1.81686 0.0217916 0.686948 2.52948 -9.65922 -3.95564 0.741667 -11.6427 -2.02168 172.228 -162.467 163.124 47.8937 2.73552 19.9395 118.922 -63.8573 122.466 -0 -7.37505 48.6676 170.115 176.246 -159.759 74.4933 -30.8422 11.8648 105.324 -16.1037 -45.2326 -0 -14.2786 -1.94106 14.4459 -3.71998 -7.10014 168.314 -177.937 167.204 157.215 179.576 -171.349 0.485772 0 0 13.9113 -11.3528 12.2316 142.598 178.2 179.696 169.15 178.081 170.027 166.804 180 -180
 -22.9804 46.1477 36.1507 176.641 161.039 176.477 0.00328259 -0.0783912 2.39784 3.01269 -0.156538 3.9964 2.82075 -0.469614 3.99652 1.36302 -0.0783912 2.39784 2.49702 0.0348247 0.798519 4.44955 -10.2419 -3.46625 1.3136 -12.6076 -1.9184 171.558 -162.703 161.633 47.9299 2.21488 19.0609 117.621 -64.098 121.012 -0 -7.10851 49.2294 170.178 176.576 -159.946 74.0455 -30.5688 11.8617 105.37 -16.1437 -45.1446 -0 -14.872 -2.31342 15.6451 -3.60542 -7.69419 165.664 -178.764 168.442 158.467 179.607 -171.615 0.455468 0 0 11.639 -13.4565 10.8625 150.453 -178.523 -177.833 175.594 178.616 169.797 166.777 180 -180
